<svg width="781" height="416" viewBox="0 0 781 416" fill="none" xmlns="http://www.w3.org/2000/svg">
<rect width="412" height="367" transform="translate(0 25)" fill="white"/>
<path d="M21 23.6224C41.5798 23.6224 62.1595 23.6224 82.7393 23.6224C93.2271 23.6224 106.123 25.673 116.046 21.9977C119.99 20.5369 125.26 19.4118 129.495 19.1093C136.941 18.5775 138.108 44.4956 138.792 49.0763C146.836 102.907 147.728 157.385 147.728 211.729C147.728 235.079 149.671 259.326 144.659 282.314C140.793 300.042 134.327 316.738 126.787 333.221C118.725 350.848 109.959 375.675 96.6396 390.448C92.9078 394.587 80.9193 392.405 76.4209 391.531C64.5894 389.23 58.3036 381.063 53.1333 370.59C43.616 351.311 39.2135 327.186 33.9977 306.323" stroke="black" stroke-width="17" stroke-linecap="round"/>
<path d="M235.463 9C243.551 24.4404 249.689 38.8556 251.349 56.4779C254.381 88.6661 261.309 119.317 261.458 151.975C261.625 188.526 264.284 224.387 265.971 260.831C266.561 273.575 268.137 311.732 266.332 299.102C263.886 281.978 264.708 264.356 264.708 247.111C264.708 226.419 265.025 205.922 268.86 185.553C272.3 167.276 269.547 148.233 287.454 136.721C298.525 129.604 317.083 147.765 324.01 155.225C327.564 159.052 330.31 163.341 333.758 167.32C338.523 172.817 337.842 178.657 340.979 185.192C344.245 191.996 343.111 200.466 344.499 207.757C345.461 212.808 348.304 217.875 349.103 223.463C350.901 236.051 347.568 248.753 347.568 261.192C347.568 263.34 346.399 274.52 349.554 273.468C355.54 271.473 357.133 253.694 357.317 248.917C358.078 229.108 358.941 209.335 358.941 189.344C358.941 178.526 361.251 170.383 363.454 160.099C365.717 149.538 365.865 139.584 367.426 129.049C369.134 117.516 375.092 138.935 376.091 142.227C380.082 155.374 376.813 173.01 376.813 186.636C376.813 201.152 379.754 211.606 392.429 219.672C405.812 228.189 413.666 234.836 430.068 234.836C454.386 234.836 461.688 205.582 468.7 186.816C473.791 173.191 473.616 156.566 475.56 142.227C476.093 138.298 475.364 134.184 476.102 130.312C476.61 127.645 478.793 127.249 479.261 124.445C479.96 120.251 483.569 129.233 483.684 129.59C486.044 136.955 485.962 145.106 487.294 152.697C491.567 177.055 490.226 205.496 485.76 229.691C479.626 262.916 467.261 295.476 456.605 327.445C450.522 345.693 446.18 362.588 436.206 379.345C434.461 382.277 422.507 403.594 424.833 406.695C425.191 407.173 426.77 404.526 426.818 404.348C429.765 393.631 430.895 382.248 433.498 371.402C440.61 341.769 451.49 312.602 463.465 284.66C474.746 258.337 490.66 235.444 501.014 208.479C510.644 183.399 527.409 158.995 531.703 132.118C533.503 120.849 532.487 109.335 533.598 97.9984C533.926 94.6536 534.949 85.0757 534.05 94.5685C531.299 123.609 522.831 152.546 523.038 181.762C523.115 192.68 526.602 202.591 530.349 212.722C532.087 217.42 534.511 230.343 540.91 231.225C567.463 234.888 584.834 221.196 599.58 201.439C609.625 187.98 620.028 172.484 625.395 156.488C633.613 131.994 635.143 103.865 635.143 78.1408C635.143 75.8544 636.875 73.3328 638.934 76.3355C642.004 80.8115 640.402 91.3017 641.01 96.3737C643.797 119.599 646.516 142.706 646.516 166.146C646.516 180.307 652.163 195.474 655.272 209.292C660.466 232.377 658.173 162.055 659.604 138.436C660.167 129.147 663.477 118.406 665.201 109.101C666.518 101.986 667.73 95.0757 669.082 87.9793C675.758 52.9281 680.635 158.717 680.635 194.398C680.635 216.484 679.617 150.163 681.358 128.146C683.208 104.746 691.541 82.8948 697.785 60.4494C702.203 44.5699 704.376 44.8298 718.365 42.397C731.948 40.0348 740.367 37.3449 749.505 50.6108C767.589 76.8616 763.496 116.142 763.496 145.928C763.496 154.877 760.469 180.057 771.62 182.845" stroke="black" stroke-width="17" stroke-linecap="round"/>
</svg>
